<svg xmlns="http://www.w3.org/2000/svg" viewBox="0 0 1020.5 682.5"><defs><style>.cls-1{fill:#fff200;}.cls-2,.cls-5{fill:none;stroke-miterlimit:10;}.cls-2{stroke:#000;stroke-width:5px;}.cls-3{fill:#222;}.cls-4{font-size:60px;font-family:SierraMadre, Sierra Madre;}.cls-4,.cls-6{fill:#fbb03b;}.cls-5{stroke:#222;stroke-width:10px;}</style></defs><title>logo</title><g id="图层_1_复制_2" data-name="图层 1_复制_2"><path d="M729.51,389.79l-12.27,15.65a73.33,73.33,0,0,1-13.83-18.52q-5-9.77-8.26-24.92-7.81-36.51,3.14-79.65,4.66-18.79,13-30.34t18.13-13.64q12.86-2.75,22.51,10.92T767.82,292q5.55,25.94,5.8,60.6A415.12,415.12,0,0,1,768.74,420c7.68-2.65,7.63-1,11.92-1.87,1.11-.24-1,.07,0,0l6.13,6.13c-7.05,1.51-11.3-.13-18.95,2.66a434.4,434.4,0,0,1-24,86.71q-16.19,41-36.67,66.43t-41,29.82q-14.52,3.11-24.69-3.83T628.06,584q-2.49-11.62.79-26.75a129.75,129.75,0,0,1,11.53-31.33A170.91,170.91,0,0,1,661,494.7a211.2,211.2,0,0,1,24.07-25.44,239.12,239.12,0,0,1,28.45-21.71,322.41,322.41,0,0,1,33.16-18.92l.61-4.25q6.16-56.43,4-98.93-1.81-29.77-5.67-47.82-3.15-14.73-8.43-22.17t-11.5-6.11Q716.8,251.26,710.4,266t-8,35.77a140.94,140.94,0,0,0,2.51,40.15Q711.51,372.6,729.51,389.79Zm15.65,46.78a225.71,225.71,0,0,0-43.85,27.82,189.81,189.81,0,0,0-33.89,34.8Q652,520.5,645.2,542.89t-3.09,39.83q2.35,11,9.46,16.85a17.9,17.9,0,0,0,15.82,4q26.56-5.68,50.44-59.39a216.82,216.82,0,0,0,11-30.44q5.17-17.92,10.89-45Q742.84,453.12,745.16,436.57Z"/><path d="M832.24,487l2.42,4.65,2.4,4.51a241.82,241.82,0,0,0,21.28,33.64,144,144,0,0,0,22.76,23.8,116.2,116.2,0,0,0,26,16.11l-13.76,11.94q-18.82-8.72-35.95-25.95A160,160,0,0,1,839.9,534.6a318.32,318.32,0,0,1-17.57-29.92l-.54-.78-6.33,10.57q-15.58,25.95-28.27,41.82a185,185,0,0,1-27.28,27.81q-26.1,21.19-51,27L711,592.46q1.64-.12,3.45-.42,10.07-1.66,23.44-7.84a125.8,125.8,0,0,0,22.93-13.38q22.8-17.33,43.19-49.26l14.46-22.73.51-.66-.54-.78q-15.73-31.31-30.81-50t-30.22-25.09l13.43-13.91q28.18,15.26,52.64,61.86l2.74,5.32,3,5.42,3.22-5.58,3.4-5.75q21.33-35,32.23-49.19,27.2-35.8,59.38-41.41l-2.19,16.81q-4.89.52-5.69.65-18.73,3.09-37.05,20a166.76,166.76,0,0,0-17.13,19.71q-9.26,12.21-22.34,33.27l-5.37,8.82Z"/><circle class="cls-1" cx="828.13" cy="288" r="10.72" transform="translate(461.29 1084.35) rotate(-84.44)"/><circle class="cls-2" cx="773" cy="435" r="245"/></g><g id="图层_4_复制_3" data-name="图层 4_复制 3"><path class="cls-3" d="M538,47.77a4.72,4.72,0,0,1,.78-.54q8.54-5.71,20.7-5.71h4.88v58.59h-4.88q-12.16,0-20.73-5.71t-8.57-13.82q0-8.1,8.59-13.82a34.26,34.26,0,0,1,15.82-5.47V51.58A27.7,27.7,0,0,0,545.84,54Zm16.6,23.34a26.77,26.77,0,0,0-8.94,2.54Q540,76.53,540,80.58t5.71,6.88a26,26,0,0,0,8.94,2.59Z"/><path class="cls-3" d="M574.16,22h9.77v78.12h-9.77Z"/><path class="cls-3" d="M593.69,22h9.77v78.12h-9.77Z"/><path class="cls-3" d="M715.76,70.81q0-8.1-7.13-13.82a25.06,25.06,0,0,0-7.52-4.15v47.27h-9.77V41.52q14.16,0,24.17,8.57t10,20.73v29.3h-9.77Z"/><path class="cls-3" d="M735.29,70.81a29.3,29.3,0,1,1,58.59,0V75.7H745.55a19.57,19.57,0,0,0,32.76,8.94l6.88,6.93a29.29,29.29,0,0,1-41.41,0,29.8,29.8,0,0,1-8.5-15.82Zm10.35-4.88h37.89a19.58,19.58,0,0,0-37.89,0Z"/><g id="图层_4_复制_2" data-name="图层 4_复制 2"><text class="cls-4" transform="translate(629.33 90.11)">in</text></g><g id="图层_7" data-name="图层 7"><circle class="cls-5" cx="647" cy="61" r="34"/></g></g><g id="图层_8" data-name="图层 8"><g id="图层_4_复制_4" data-name="图层 4_复制 4"><path class="cls-6" d="M187.55,141.67a18.59,18.59,0,1,1-13.24-5.54A18.08,18.08,0,0,1,187.55,141.67Zm5.54,295.13-37.56-.19V211.25h37.56Z"/><path class="cls-6" d="M324.55,323.93q0-31.17-27.42-53.15a96.27,96.27,0,0,0-28.92-16V436.61H230.65V211.25q54.46,0,93,33t38.5,79.72V436.61H324.55Z"/></g><g id="图层_7_复制" data-name="图层 7_复制"><path class="cls-3" d="M250,500C112.15,500,0,387.85,0,250S112.15,0,250,0,500,112.15,500,250,387.85,500,250,500Zm0-435.9C147.5,64.1,64.1,147.5,64.1,250S147.5,435.9,250,435.9,435.9,352.5,435.9,250,352.5,64.1,250,64.1Z"/></g></g></svg>