<?xml version="1.0" standalone="no"?>
<!DOCTYPE svg PUBLIC "-//W3C//DTD SVG 1.1//EN" "http://www.w3.org/Graphics/SVG/1.1/DTD/svg11.dtd" >
<svg xmlns="http://www.w3.org/2000/svg">
<metadata>
Created by FontForge 20120731 at Sun Jun 25 22:18:42 2017
 By admin
</metadata>
<defs>
<font id="iconfont" horiz-adv-x="1024" >
  <font-face 
    font-family="iconfont"
    font-weight="500"
    font-stretch="normal"
    units-per-em="1024"
    panose-1="2 0 6 3 0 0 0 0 0 0"
    ascent="896"
    descent="-128"
    x-height="792"
    bbox="-3 -126 1045 901"
    underline-thickness="0"
    underline-position="0"
    unicode-range="U+0078-E8CE"
  />
<missing-glyph 
 />
    <glyph glyph-name=".notdef" 
 />
    <glyph glyph-name=".notdef" 
 />
    <glyph glyph-name=".null" horiz-adv-x="0" 
 />
    <glyph glyph-name="nonmarkingreturn" horiz-adv-x="341" 
 />
    <glyph glyph-name="x" unicode="x" horiz-adv-x="1001" 
d="M281 543q-27 -1 -53 -1h-83q-18 0 -36.5 -6t-32.5 -18.5t-23 -32t-9 -45.5v-76h912v41q0 16 -0.5 30t-0.5 18q0 13 -5 29t-17 29.5t-31.5 22.5t-49.5 9h-133v-97h-438v97zM955 310v-52q0 -23 0.5 -52t0.5 -58t-10.5 -47.5t-26 -30t-33 -16t-31.5 -4.5q-14 -1 -29.5 -0.5
t-29.5 0.5h-32l-45 128h-439l-44 -128h-29h-34q-20 0 -45 1q-25 0 -41 9.5t-25.5 23t-13.5 29.5t-4 30v167h911zM163 247q-12 0 -21 -8.5t-9 -21.5t9 -21.5t21 -8.5q13 0 22 8.5t9 21.5t-9 21.5t-22 8.5zM316 123q-8 -26 -14 -48q-5 -19 -10.5 -37t-7.5 -25t-3 -15t1 -14.5
t9.5 -10.5t21.5 -4h37h67h81h80h64h36q23 0 34 12t2 38q-5 13 -9.5 30.5t-9.5 34.5q-5 19 -11 39h-368zM336 498v228q0 11 2.5 23t10 21.5t20.5 15.5t34 6h188q31 0 51.5 -14.5t20.5 -52.5v-227h-327z" />
    <glyph glyph-name="arrow3" unicode="&#xe654;" 
d="M511.5 171q-11.5 0 -19.5 8l-405 398q-8 8 -8 19.5t8 20t19.5 8.5t20.5 -8l385 -378l384 378q9 8 20.5 8t19.5 -8.5t8 -20t-8 -19.5l-405 -398q-8 -8 -19.5 -8z" />
    <glyph glyph-name="comments" unicode="&#xe69b;" 
d="M177 140q-28 0 -48.5 20.5t-20.5 49.5v563l-23 -23h762q28 0 48.5 -21t20.5 -50v-562l23 23h-422l-204 -136q-8 -6 -10 -15.5t3.5 -17.5t15 -10t17.5 4l197 132l-12 -4h438v586q0 49 -34 83t-81 34h-785v-586q0 -48 34 -82.5t81 -34.5h121q9 0 16 7t7 17t-7 16.5t-16 6.5
h-121zM385 445q0 39 -27 66.5t-65 27.5t-65.5 -27.5t-27.5 -66.5t27.5 -66.5t65.5 -27.5t65 27.5t27 66.5zM247 445q0 19 13.5 33t32.5 14t32.5 -14t13.5 -33t-13.5 -33t-32.5 -14t-32.5 14t-13.5 33zM616 445q0 39 -27 66.5t-65.5 27.5t-65.5 -27.5t-27 -66.5t27 -66.5
t65.5 -27.5t65.5 27.5t27 66.5zM477 445q0 19 13.5 33t33 14t33 -14t13.5 -33t-13.5 -33t-33 -14t-33 14t-13.5 33zM847 445q0 39 -27 66.5t-65.5 27.5t-65.5 -27.5t-27 -66.5t27 -66.5t65.5 -27.5t65.5 27.5t27 66.5zM708 445q0 19 13.5 33t32.5 14t32.5 -14t13.5 -33
t-13.5 -33t-32.5 -14t-32.5 14t-13.5 33z" />
    <glyph glyph-name="edit" unicode="&#xe69e;" 
d="M64 647h-23v-584q0 -49 34 -83.5t83 -34.5h767v477q0 10 -6.5 17t-16.5 7t-16.5 -7t-6.5 -17v-453l23 23h-744q-29 0 -50 21t-21 50v561l-23 -24h530q9 0 16 7t7 17t-7 16.5t-16 6.5h-530v0zM442 308l-5 -7l-5 -182l174 62l381 504l-158 120zM819 753l121 -91l-5 33
l-362 -479l11 8l-135 -49l31 -23l4 140l-6 -14l374 479zM868 573l27 38l-105 77l-28 -38z" />
    <glyph glyph-name="email" unicode="&#xe69f;" 
d="M917 13l23 22h-766q-28 0 -47.5 20t-19.5 48v633l-23 -22h766q28 0 47.5 -20t19.5 -48v-57q0 -9 6.5 -15.5t16 -6.5t16 6.5t6.5 15.5v57q0 47 -33 80t-79 33h-788v-656q0 -47 33 -80t79 -33h788v442q0 9 -6.5 15.5t-16 6.5t-16 -6.5t-6.5 -15.5v-419zM513 336
q11 -9 23 -2l407 224q8 5 11 14t-1.5 17t-13.5 10.5t-17 -1.5l-407 -224l24 -2l-306 219q-8 5 -17 3.5t-14.5 -9t-4 -16.5t8.5 -15z" />
    <glyph glyph-name="form" unicode="&#xe6a2;" 
d="M815 818q29 0 49.5 -20t20.5 -48v-669l7 16l-152 -154l17 7h-548q-29 0 -49.5 20t-20.5 48v823l-24 -23h700zM92 864v-846q0 -47 34 -80.5t83 -33.5h558l165 168v678q0 47 -34 80.5t-83 33.5h-723zM722 201q-29 0 -49.5 -20t-20.5 -48v-138q0 -9 7 -15.5t16.5 -6.5
t16.5 6.5t7 15.5v138q0 9 6.5 15.5t16.5 6.5h105q10 0 16.5 7t6.5 16.5t-6.5 16t-16.5 6.5h-105zM759 658q9 0 16 7t7 16.5t-7 16t-16 6.5h-480q-10 0 -17 -6.5t-7 -16t7 -16.5t17 -7h480zM759 521q9 0 16 7t7 16t-7 16t-16 7h-480q-10 0 -17 -7t-7 -16t7 -16t17 -7h480z
M759 361q9 0 16 7t7 16t-7 16t-16 7h-480q-10 0 -17 -7t-7 -16t7 -16t17 -7h480z" />
    <glyph glyph-name="information" unicode="&#xe6a4;" 
d="M962 384q0 186 -132 318t-318 132t-318 -132t-132 -318t132 -318t318 -132q157 0 280 98q7 5 8 14.5t-4.5 16.5t-14.5 8t-16 -5q-111 -88 -253 -88q-110 0 -203.5 54.5t-148 148t-54.5 203.5t54.5 203.5t148 148t203.5 54.5t203.5 -54.5t148 -148t54.5 -203.5
q0 -116 -61 -214q-5 -8 -3 -17t10 -13.5t16.5 -2.5t13.5 9q68 109 68 238zM501 181q0 -9 6.5 -15.5t15.5 -6.5t15.5 6.5t6.5 15.5v280q0 9 -6.5 15.5t-15.5 6.5t-15.5 -6.5t-6.5 -15.5v-280zM501 554q0 -9 6.5 -15.5t15.5 -6.5t15.5 6.5t6.5 15.5v39q0 9 -6.5 15t-15.5 6
t-15.5 -6t-6.5 -15v-39z" />
    <glyph glyph-name="training" unicode="&#xe6b3;" 
d="M842 726q26 0 44.5 -19t18.5 -46v-410l22 21h-745q-26 0 -44.5 19t-18.5 46v411l-22 -22h745zM76 769v-432q0 -45 31 -76.5t75 -31.5h766v432q0 45 -31 76.5t-75 31.5h-766zM234 -14q-6 -7 -5.5 -15.5t7 -15t15 -6t14.5 7.5l193 213q6 6 5.5 15t-7 15t-15 5.5t-14.5 -6.5
zM764 -43q6 -7 14.5 -7.5t15 6t7 15t-5.5 15.5l-193 213q-6 6 -14.5 6.5t-15 -5.5t-7 -15t5.5 -15zM450 743q0 -7 6.5 -12t15 -5t15 5t6.5 12v74q0 7 -6.5 12t-15 5t-15 -5t-6.5 -12v-74zM514 564q9 0 15.5 6.5t6.5 15.5t-6.5 15t-15.5 6h-313q-8 0 -14.5 -6t-6.5 -15
t6.5 -15.5t14.5 -6.5h313zM514 425q9 0 15.5 6.5t6.5 15.5t-6.5 15t-15.5 6h-313q-8 0 -14.5 -6t-6.5 -15t6.5 -15.5t14.5 -6.5h313zM660 348q68 54 68 154v141q0 9 -6 15.5t-15 6.5t-15 -6.5t-6 -15.5v-141q0 -79 -52 -119q-16 -13 -36 -21q-10 -4 -15 -5q-9 -1 -14 -8.5
t-3.5 -16.5t9 -14t16.5 -3q35 7 69 33zM724 630q5 7 4 15.5t-7.5 14.5t-15.5 5t-14 -8l-97 -118q-5 -7 -4.5 -16t7.5 -14.5t16 -4.5t14 7zM724 657q-6 7 -15 8t-15.5 -5t-7.5 -14.5t5 -15.5l96 -119q6 -6 14.5 -7t15.5 4.5t7.5 14.5t-4.5 16z" />
    <glyph glyph-name="viewgallery" unicode="&#xe6b4;" 
d="M191 790h177q28 0 47.5 -19.5t19.5 -46.5v-197q0 -28 -19.5 -47t-47.5 -19h-177q-27 0 -46.5 19t-19.5 47v197q0 27 19.5 46.5t46.5 19.5zM81 527q0 -46 32 -78t78 -32h177q46 0 78.5 32t32.5 78v197q0 46 -32.5 78t-78.5 32h-177q-46 0 -78 -32t-32 -78v-197zM656 790
h177q27 0 46.5 -19.5t19.5 -46.5v-197q0 -28 -19.5 -47t-46.5 -19h-177q-28 0 -47.5 19t-19.5 47v197q0 27 19.5 46.5t47.5 19.5zM545 527q0 -46 32.5 -78t78.5 -32h177q46 0 78 32t32 78v197q0 46 -32 78t-78 32h-177q-46 0 -78.5 -32t-32.5 -78v-197zM191 307h177
q28 0 47.5 -19t19.5 -47v-197q0 -27 -19.5 -46.5t-47.5 -19.5h-177q-27 0 -46.5 19.5t-19.5 46.5v197q0 28 19.5 47t46.5 19zM81 44q0 -46 32 -78t78 -32h177q46 0 78.5 32t32.5 78v197q0 46 -32.5 78t-78.5 32h-177q-46 0 -78 -32t-32 -78v-197zM831 -22h-175
q-28 0 -47.5 19.5t-19.5 46.5v197q0 28 19.5 47t47.5 19h177q27 0 46.5 -19t19.5 -47v-197q0 -9 6.5 -15.5t15.5 -6.5t15.5 6.5t6.5 15.5v197q0 46 -32 78t-78 32h-177q-46 0 -78.5 -32t-32.5 -78v-197q0 -46 32.5 -78t78.5 -32h176q10 0 16.5 6.5t6.5 15.5t-6.5 15.5
t-15.5 6.5h-2v0z" />
    <glyph glyph-name="clock" unicode="&#xe6bb;" 
d="M962 384q0 186 -132 318t-318 132t-318 -132t-132 -318t132 -318t318 -132q152 0 272 91q7 6 8 14.5t-4 16t-14 8.5t-16 -4q-109 -83 -246 -83q-111 0 -204.5 54.5t-148 148t-54.5 204.5t54.5 204.5t148 148t204.5 54.5t204.5 -54.5t148 -148t54.5 -204.5
q0 -126 -71 -230q-5 -7 -3.5 -16t9 -14t16 -3t13.5 9q79 114 79 254zM491 298q0 -9 6 -15t15 -6t15 6t6 15v322q0 9 -6 15t-15 6t-15 -6t-6 -15v-322zM485 420q-6 6 -14.5 6.5t-15.5 -5t-7.5 -14.5t5.5 -16l150 -171q6 -7 15 -7.5t15.5 5.5t7 14.5t-5.5 15.5z" />
    <glyph glyph-name="calendar" unicode="&#xe6bf;" 
d="M175 17q-28 0 -48 20t-20 49v615l-23 -23h766q27 0 47 -20t20 -48v-513q0 -10 6.5 -16.5t16 -6.5t16 6.5t6.5 16.5v513q0 47 -33 80.5t-79 33.5h-765q-10 0 -16.5 -6.5t-6.5 -16.5v-615q0 -48 33 -81t80 -33h663q10 0 16.5 6.5t6.5 16t-6.5 16t-16.5 6.5h-663zM310 610
q0 -9 6.5 -16t15.5 -7t15.5 7t6.5 16v171q0 9 -6.5 16t-15.5 7t-15.5 -7t-6.5 -16v-171zM692 621q0 -9 6.5 -15.5t16 -6.5t16 6.5t6.5 15.5v171q0 10 -6.5 16.5t-16 6.5t-16 -6.5t-6.5 -16.5v-171zM354 473q10 0 16.5 7t6.5 16t-6.5 16t-16.5 7h-123q-10 0 -16.5 -7
t-6.5 -16t6.5 -16t16.5 -7h123zM602 473q9 0 15.5 7t6.5 16t-6.5 16t-15.5 7h-124q-9 0 -15.5 -7t-6.5 -16t6.5 -16t15.5 -7h124zM827 473q9 0 16 7t7 16t-7 16t-16 7h-124q-9 0 -15.5 -7t-6.5 -16t6.5 -16t15.5 -7h124zM354 336q10 0 16.5 7t6.5 16.5t-6.5 16t-16.5 6.5
h-123q-10 0 -16.5 -6.5t-6.5 -16t6.5 -16.5t16.5 -7h123zM602 336q9 0 15.5 7t6.5 16.5t-6.5 16t-15.5 6.5h-124q-9 0 -15.5 -6.5t-6.5 -16t6.5 -16.5t15.5 -7h124zM827 336q9 0 16 7t7 16.5t-7 16t-16 6.5h-124q-9 0 -15.5 -6.5t-6.5 -16t6.5 -16.5t15.5 -7h124zM354 200
q10 0 16.5 6.5t6.5 16t-6.5 16t-16.5 6.5h-123q-10 0 -16.5 -6.5t-6.5 -16t6.5 -16t16.5 -6.5h123zM602 200q9 0 15.5 6.5t6.5 16t-6.5 16t-15.5 6.5h-124q-9 0 -15.5 -6.5t-6.5 -16t6.5 -16t15.5 -6.5h124zM827 200q9 0 16 6.5t7 16t-7 16t-16 6.5h-124q-9 0 -15.5 -6.5
t-6.5 -16t6.5 -16t15.5 -6.5h124z" />
    <glyph glyph-name="tag" unicode="&#xe690;" 
d="M838 619v0q-7 -7 -7 -17.5t7 -17.5t17.5 -7t17.5 7l65 65q33 33 33 80.5t-33.5 81t-81 33.5t-80.5 -33l-56 -56h-275q-11 0 -18 -7l-350 -350q-27 -27 -27 -65t27 -65l318 -318q27 -27 65 -27t65 27l350 350q7 7 7 17v160q0 10 -7 17.5t-17.5 7.5t-18 -7.5t-7.5 -17.5
v-149l-342 -343q-12 -12 -30 -12t-30 12l-318 318q-12 12 -12 29.5t12 30.5l343 342h215l-18 -18q-33 -33 -33 -81t34 -82l1 -1q7 -6 17 -6t16 7q8 7 8.5 17t-6.5 18q-1 0 -2 2q-19 19 -18.5 45.5t18.5 45.5l124 124q19 18 46 18t46 -18.5t19 -45.5t-19 -46z" />
    <glyph glyph-name="add" unicode="&#xe61e;" 
d="M932 352h-822q-10 0 -17 7t-7 17.5t7 17.5t17 7h822q10 0 17.5 -7t7.5 -17.5t-7.5 -17.5t-17.5 -7zM508.5 -54q-10.5 0 -17.5 7.5t-7 17.5v817q0 11 7 18t17.5 7t17.5 -7t7 -18v-817q0 -10 -7 -17.5t-17.5 -7.5z" />
    <glyph glyph-name="discount" unicode="&#xe6c5;" 
d="M834 338l-374 -349q-21 -20 -50.5 -19.5t-50.5 20.5l-245 238q-21 20 -21 48.5t19 48.5l451 460l-17 -7h309q28 0 48 -20t20 -48v-297q0 -10 7 -16.5t16.5 -6.5t16 6.5t6.5 16.5v297q0 47 -33.5 80.5t-80.5 33.5h-309q-9 0 -16 -7l-450 -460q-33 -34 -32.5 -81.5
t34.5 -80.5l246 -238q33 -33 81 -33.5t83 32.5l374 348q7 7 7 16.5t-6.5 16t-16 7t-16.5 -5.5v0zM729 481q43 0 73 30t30 73t-30 73t-72.5 30t-73 -30t-30.5 -73t30.5 -73t72.5 -30v0zM729 527q-24 0 -40.5 16.5t-16.5 40.5t16.5 40.5t40.5 16.5t40.5 -16.5t16.5 -40.5
t-16.5 -40.5t-40.5 -16.5v0z" />
    <glyph glyph-name="electronics" unicode="&#xe6da;" 
d="M66 764h798q29 0 49.5 -21t20.5 -50v-539l24 23h-798q-29 0 -49.5 20.5t-20.5 49.5v540zM66 811h-23v-564q0 -48 34 -82.5t83 -34.5h821v563q0 49 -34 83.5t-83 34.5h-798zM408 151l-70 -164q-4 -9 -0.5 -18t12.5 -13t18 -0.5t13 12.5l70 165q4 9 0.5 18t-12.5 12.5
t-18 0t-13 -12.5v0zM587 69l82 -106q6 -7 16 -8.5t17.5 4.5t8.5 15.5t-4 17.5l-83 106q-6 7 -15.5 8.5t-17 -4.5t-9 -16t4.5 -17v0zM242 -58h563q10 0 17 7t7 17t-7 16.5t-17 6.5h-563q-10 0 -16.5 -6.5t-6.5 -16.5t6.5 -17t16.5 -7v0z" />
    <glyph glyph-name="gifts" unicode="&#xe6db;" 
d="M151 318v-327q0 -27 19.5 -46.5t46.5 -19.5h568q27 0 46 19t19 47v317h-44v-317q0 -9 -6 -15.5t-15 -6.5h-568q-9 0 -15.5 6.5t-6.5 15.5v327h-44zM544 -53v623h-43v-623h43zM86 548h742q27 0 46.5 -19.5t19.5 -46.5v-153l21 22h-742q-27 0 -46 19.5t-19 46.5v153z
M86 591h-22v-174q0 -45 32 -77t77 -32h764v174q0 45 -32 77t-77 32h-742zM457 613h131l-22 22v-65l22 21h-131l22 -21v65zM457 657h-22v-109h175v109h-153zM552 623q2 3 5 8q6 10 14 21q23 34 45 63q13 16 24 29q20 24 36.5 39.5t20.5 15.5q26 0 64 -24t60 -55
q9 -12 -10 -52q-4 -9 -1 -17.5t11.5 -12t17 -0.5t11.5 11q31 64 6 97q-29 39 -75.5 67.5t-83.5 28.5q-32 0 -91 -70q-12 -14 -25 -31q-22 -29 -46 -65q-8 -11 -15 -21q-3 -5 -5 -8q-5 -8 -3 -16.5t9.5 -13.5t16.5 -3t14 9v0zM538 647q-2 3 -5 8q-7 10 -15 21q-24 36 -46 65
q-13 17 -25 31q-59 70 -91 70q-37 0 -83.5 -28.5t-75.5 -67.5q-25 -32 5 -96q9 -19 23 -41q12 -19 26 -38q7 -9 12 -15l33 27q-4 5 -10 14q-13 18 -24 35q-13 20 -20 37q-19 40 -10 51q22 31 60 55t64 24q4 0 20.5 -15.5t36.5 -39.5q11 -13 24 -29q22 -29 45 -63
q8 -11 14 -21q4 -5 5 -8z" />
    <glyph glyph-name="lights" unicode="&#xe6de;" 
d="M669 -39h-21q-27 -1 -53 -2q-38 0 -70 -1q-63 -1 -98 0q-21 0 -32 1h-6h2q13 -6 13 -21v88v72v39q0 11 -8 17l-8 8q-11 10 -23 22q-38 37 -69 76q-64 79 -87 145q-11 33 -11 61q0 90 44.5 166.5t121 121t167 44.5t167 -44.5t121 -121t44.5 -166.5q0 -25 -10 -55
q-24 -68 -99 -151q-35 -38 -77 -76q-13 -11 -25 -21q-6 -5 -10 -8q-9 -7 -9 -18v-107l23 23h-263q-10 0 -16.5 -6.5t-6.5 -16t6.5 -16.5t16.5 -7h263q10 0 16.5 7t6.5 16v107l-9 -18q4 3 11 8q13 11 26 23q44 39 81 80q81 89 108 166q13 37 13 70q0 102 -51 189.5t-138 138
t-189.5 50.5t-190 -50.5t-138 -138t-50.5 -189.5q0 -36 14 -76q25 -73 94 -159q33 -40 73 -80q12 -12 24 -23q6 -5 9 -8l-8 17v-39v-72v-88q0 -15 15 -21q3 -2 7 -3q5 0 12 -1q12 -1 34 -1q36 -1 100 0q32 1 70 2q27 0 53 1h22q9 1 15.5 8t6.5 16.5t-7 16t-17 5.5v0z
M388 346l115 -114q6 -7 15 -7t16 6l115 103q7 6 7.5 15.5t-6 16.5t-16 7.5t-16.5 -5.5l-115 -103l32 -1l-115 115q-6 6 -15.5 6t-16.5 -6.5t-7 -16t7 -16.5v0zM496 236v-194h46v194h-46z" />
    <glyph glyph-name="jewelry" unicode="&#xe6e4;" horiz-adv-x="1028" 
d="M776 766q-7 9 -18 9h-233h-48q-2 0 -2 -4t1.5 -11t3 -13.5t3.5 -12.5t3 -7q0 -2 9.5 -0.5t9.5 0.5l152 -248l-1 19l-175 -458q-3 -7 -4 -13q-1 -17 12 -25q13 -7 27 2q5 3 10 8l394 381q7 7 7 16.5t-6.5 16t-16 6.5t-16.5 -6l-394 -382q5 6 19 -2.5t10 -17.5l175 458
q4 10 -1 19l-152 263l-20 -34h233l-18 9l191 -252q6 -8 15.5 -9t17 4.5t8.5 15t-4 16.5zM757 721l-105 -244h309v46h-274l21 -32l91 212zM455 764l-156 -272l166 -467q-3 8 10.5 16.5t19.5 1.5l-417 462l2 -28l181 262l-18 -9h232zM495 741l19 34h-283l-199 -287l430 -475
q5 -6 9 -9q14 -9 27.5 -1.5t12.5 24.5q-1 6 -3 13l-163 458l-2 -19zM212 703l91 -212l21 32h-243v-46h277l-104 244zM323 489h615q10 0 16.5 7t6.5 16t-6.5 16t-16.5 7h-615q-9 0 -16 -7t-7 -16t7 -16t16 -7v0z" />
    <glyph glyph-name="imagetext" unicode="&#xe6fb;" 
d="M596 576q10 0 16.5 7t6.5 16.5t-6.5 16t-16.5 6.5h-123q-10 0 -16.5 -6.5t-6.5 -16t6.5 -16.5t16.5 -7h123zM821 576q10 0 16.5 7t6.5 16.5t-6.5 16t-16.5 6.5h-123q-10 0 -16.5 -6.5t-6.5 -16t6.5 -16.5t16.5 -7h123zM596 440q10 0 16.5 6.5t6.5 16t-6.5 16t-16.5 6.5
h-123q-10 0 -16.5 -6.5t-6.5 -16t6.5 -16t16.5 -6.5h123zM821 440q10 0 16.5 6.5t6.5 16t-6.5 16t-16.5 6.5h-123q-10 0 -16.5 -6.5t-6.5 -16t6.5 -16t16.5 -6.5h123zM596 303q10 0 16.5 6.5t6.5 16t-6.5 16t-16.5 6.5h-123q-10 0 -16.5 -6.5t-6.5 -16t6.5 -16t16.5 -6.5
h123zM821 303q10 0 16.5 6.5t6.5 16t-6.5 16t-16.5 6.5h-123q-10 0 -16.5 -6.5t-6.5 -16t6.5 -16t16.5 -6.5h123zM596 166q10 0 16.5 6.5t6.5 16t-6.5 16t-16.5 6.5h-123q-10 0 -16.5 -6.5t-6.5 -16t6.5 -16t16.5 -6.5h123zM821 166q10 0 16.5 6.5t6.5 16t-6.5 16t-16.5 6.5
h-123q-10 0 -16.5 -6.5t-6.5 -16t6.5 -16t16.5 -6.5h123zM837 778h-775v-661q0 -52 36.5 -89.5t88.5 -37.5h775v254q0 11 -7.5 18.5t-17.5 7.5t-17.5 -7.5t-7.5 -18.5v-203h-725q-31 0 -53 22.5t-22 53.5v610h725q31 0 53 -22.5t22 -53.5v-229q1 -10 8 -17t17 -7t17.5 7
t7.5 17v229q0 52 -36.5 89.5t-88.5 37.5zM187 536.5q0 -36.5 25.5 -63t62 -26.5t62 26.5t25.5 63t-25.5 62.5t-62 26t-62 -26t-25.5 -62.5zM312 536.5q0 -15.5 -11 -27t-26.5 -11.5t-26.5 11.5t-11 27t11 27t26.5 11.5t26.5 -11.5t11 -27z" />
    <glyph glyph-name="subtract" unicode="&#xe6fe;" 
d="M926 358q11 0 18.5 7.5t7.5 18.5t-7.5 18.5t-18.5 7.5h-828q-11 0 -18.5 -7.5t-7.5 -18.5t7.5 -18.5t18.5 -7.5h828z" />
    <glyph glyph-name="edit1" unicode="&#xe609;" horiz-adv-x="1027" 
d="M62 -15h869v-51h-869v51zM893 762l-2 1q-68 66 -165 66t-165 -65l-497 -480l4 -2q-6 -5 -6 -15v-288q0 -20 18 -20h299q10 0 16 7l1 -1l497 479q68 66 68 159t-68 159zM145 41q-9 9 -17 11.5t-23 -0.5v178l105 -3l3 -98l-1 -23h1v-1h23l102 -2l4 -102h-187q5 26 -10 40v0
zM681 472l-341 -329l-86 3l-3 86l339 327zM395 22l-1 -2q-3 -2 -10 -9l-4 109v4l331 318l60 -58l-375 -362h-0.5h-0.5v0zM530 675l30 29l272 -262l-31 -29zM123 284l2 1l375 361l60 -58l-333 -320v0l-116 4zM863 473l-1 -1l-272 261l2 2q55 53 134 53t135 -54l2 -1
q56 -54 56 -130t-56 -130z" />
    <glyph glyph-name="raw" unicode="&#xe704;" 
d="M539 446q31 0 53.5 22t22.5 53t-22.5 53t-53.5 22t-53 -22t-22 -53t22 -53t53 -22v0zM539 496q-10 0 -17.5 7.5t-7.5 18t7.5 17.5t18 7t17.5 -7t7 -17.5t-7 -18t-18 -7.5v0zM435 689q-141 -28 -232.5 -138.5t-91.5 -253.5q0 -109 54 -201t146.5 -145.5t202.5 -53.5
t202.5 53.5t146.5 145.5t54 201q0 135 -85 242.5t-217 143.5l-13 -49q116 -30 190.5 -124.5t74.5 -212.5q0 -95 -47.5 -175.5t-128.5 -127.5t-177 -47t-177.5 47t-128.5 127.5t-47 175.5q0 125 80.5 221.5t203.5 121.5zM363 272q41 0 71 29t30 70.5t-30 70.5t-71.5 29
t-71 -29t-29.5 -70.5t29.5 -70.5t71.5 -29v0zM363 322q-21 0 -36 14.5t-15 35t15 35t36 14.5t35.5 -14.5t14.5 -35t-14.5 -35t-35.5 -14.5v0zM118 304q30 -28 84 -55q107 -54 232 -54q106 0 205 38q4 2 13.5 6t18 7t9.5 4q21 8 35 12q29 9 56 5q10 -1 18.5 5.5t9.5 17
t-5.5 18.5t-16.5 9q-37 4 -76 -7q-17 -5 -40 -14q-1 0 -9.5 -3.5t-17.5 -7.5t-13 -5q-91 -35 -187 -35q-113 0 -209 48q-30 15 -55 33q-11 8 -17 14q-7 7 -17.5 6.5t-18 -8t-7 -17.5t7.5 -17v0zM465 640v157h-97l25 -25v90l-25 -25h286l-26 25v-92l26 25l-90 3v-164h50v138
l-26 -25l91 -2v142h-336v-140h97l-25 25v-132h50z" />
    <glyph glyph-name="bussinessman" unicode="&#xe726;" 
d="M498 -7l-93 89l34 194h114l27 -195zM443 100l54 -53l48 51l-19 142h-62zM626 336q62 35 98.5 95.5t36.5 133.5q0 108 -75.5 184.5t-182.5 76.5t-182.5 -76.5t-75.5 -185t75.5 -184.5t182.5 -76h9h2q101 0 192 -44t147 -117t64 -156h-808q7 84 58.5 155t136.5 115
q8 4 11 13t-2 17t-13 10.5t-17 -1.5q-102 -50 -161.5 -138.5t-59.5 -192.5v-23h900v23q0 128 -96 232.5t-240 138.5zM287 565q0 88 62.5 151t151.5 63t151.5 -62.5t62.5 -151t-62.5 -151t-151 -62.5t-151.5 62.5t-63 150.5z" />
    <glyph glyph-name="fuzhi" unicode="&#xe656;" 
d="M880 860h-413q-28 0 -47 -19t-19 -47v-11h-68q-20 0 -36.5 -11.5t-23.5 -30.5h-129q-28 0 -47.5 -19t-19.5 -47v-701q0 -28 19.5 -47t47.5 -19h586q28 0 47.5 19t19.5 47v53h83q28 0 47.5 19t19.5 47v701q0 28 -19.5 47t-47.5 19zM333 739h208q8 0 14.5 -6t6.5 -14.5
t-6.5 -15t-14.5 -6.5h-208q-8 0 -14.5 6.5t-6.5 15t6.5 14.5t14.5 6zM752 -26q0 -9 -6 -15.5t-16 -6.5h-586q-10 0 -16 6.5t-6 15.5v701q0 9 6 15.5t16 6.5h128q6 -19 23 -31.5t38 -12.5h208q21 0 38 12.5t23 31.5h128q10 0 16 -6.5t6 -15.5v-701zM902 93q0 -9 -6 -15.5
t-16 -6.5h-83v604q0 28 -19.5 47t-47.5 19h-129q-7 19 -23.5 30.5t-36.5 11.5h-96v11q0 9 6.5 15.5t15.5 6.5h413q10 0 16 -6.5t6 -15.5v-701zM628 574h-384q-9 0 -15.5 -6.5t-6.5 -16t6.5 -16t15.5 -6.5h384q9 0 15.5 6.5t6.5 16t-6.5 16t-15.5 6.5zM628 446h-384
q-9 0 -15.5 -6.5t-6.5 -16t6.5 -15.5t15.5 -6h384q9 0 15.5 6t6.5 15.5t-6.5 16t-15.5 6.5zM436 318h-192q-9 0 -15.5 -6.5t-6.5 -15.5t6.5 -15.5t15.5 -6.5h192q9 0 15.5 6.5t6.5 15.5t-6.5 15.5t-15.5 6.5z" />
    <glyph glyph-name="listview" unicode="&#xe67b;" 
d="M599 679h338q9 0 15 6.5t6 15t-6 14.5t-15 6h-338q-9 0 -15 -6t-6 -14.5t6 -15t15 -6.5zM937 563h-338q-9 0 -15 -6t-6 -14.5t6 -14.5t15 -6h338q9 0 15 6t6 14.5t-6 14.5t-15 6zM367 831h-187q-47 0 -80.5 -33.5t-33.5 -80.5v-187q0 -47 33.5 -80.5t80.5 -33.5h187
q47 0 80.5 33.5t33.5 80.5v187q0 47 -33.5 80.5t-80.5 33.5zM439 530q0 -30 -21 -51t-51 -21h-187q-30 0 -51 21t-21 51v187q0 30 21 51t51 21h187q30 0 51 -21t21 -51v-187zM937 242h-338q-9 0 -15 -6t-6 -14.5t6 -14.5t15 -6h338q9 0 15 6t6 14.5t-6 14.5t-15 6zM937 84
h-338q-9 0 -15 -6t-6 -14.5t6 -14.5t15 -6h338q9 0 15 6t6 14.5t-6 14.5t-15 6zM367 352h-187q-47 0 -80.5 -33.5t-33.5 -80.5v-187q0 -47 33.5 -80.5t80.5 -33.5h187q47 0 80.5 33.5t33.5 80.5v187q0 47 -33.5 80.5t-80.5 33.5zM439 51q0 -30 -21 -51t-51 -21h-187
q-30 0 -51 21t-21 51v187q0 30 21 51t51 21h187q30 0 51 -21t21 -51v-187z" />
    <glyph glyph-name="haitan" unicode="&#xe686;" 
d="M861 441q66 30 89 105q22 69 -9.5 134t-97.5 88q-49 17 -97 3.5t-81 -52.5q-79 86 -192 107q-134 24 -248 -53q-58 -40 -97.5 -99t-53.5 -131q-31 -147 47 -274q47 -78 124 -122q5 -3 10 -3q9 0 15 7q11 12 1 25q-2 3 -6 8q-7 8 -8 12q-38 134 -15 253q27 134 126 201
q100 68 202 47q-27 -3 -53 -13q-84 -32 -125 -115q-44 -87 -15.5 -182t112.5 -141q50 -27 107 -27h3q16 0 19 16t-12 22l-16 8q-66 36 -82 115q-15 78 23 155q33 67 80 92q66 -103 73 -225q6 -101 -29 -211q-38 -120 -105 -213h-55q1 3 1 6q0 35 -21 62h37q8 0 14 6t6 14
t-6 14t-14 6h-348q-9 0 -14.5 -6t-5.5 -14t5.5 -14t14.5 -6h49q-22 -27 -22 -62q0 -3 1 -6h-108q-9 0 -14.5 -6t-5.5 -14t5.5 -14t14.5 -6h849q8 0 14 5.5t6 14.5q0 184 -41 338q-21 77 -51 145zM821 519q-42 71 -93 123l6 -2q39 -13 63 -47.5t25 -76.5q0 1 -0.5 1.5
t-0.5 1.5zM830 730q51 -17 75 -67.5t7 -104.5q-14 -47 -51 -72q8 63 -24 117.5t-90 74.5q-26 9 -54 9h-2v1q25 32 62.5 44t76.5 -2zM346 684q-114 -77 -143 -228q-21 -108 5 -232q-31 29 -53 66q-46 74 -49.5 160.5t34 164t108.5 124.5q76 52 166 52q26 0 52 -5
q67 -12 122 -52q-124 29 -242 -50zM495 553q-44 -90 -26 -181q11 -53 43 -92q-2 0 -3 1q-70 38 -94 117.5t13 153.5q34 69 103 95q27 10 55 12q-54 -32 -91 -106zM231 -16q0 25 17.5 42.5t42.5 17.5q4 0 7 2h91q3 -2 8 -2q24 0 41.5 -17.5t17.5 -42.5q0 -3 1 -6h-226v6z
M598 -22q61 94 95 200q37 117 31 225q-7 128 -74 237q9 2 19 2q62 -49 117 -143q15 -25 28 -52q1 -5 4 -8q33 -71 55 -153q37 -140 40 -308h-315v0z" />
    <glyph glyph-name="langman" unicode="&#xe68a;" 
d="M983 365q-13 69 -82 96q-34 13 -77 15q-20 35 -46 58q14 33 19 64q16 102 -58 184q-30 34 -68.5 50t-72 16.5t-71 -9t-61.5 -20t-46 -23.5q-65 38 -128 49q-118 20 -192 -63q-75 -84 -59 -187q21 -135 193 -286q70 -60 147 -110q-15 -22 -18 -44q-6 -39 25 -74
q3 -3 9 -10q34 -37 38 -54q6 -25 -23 -72q-4 -8 -2 -16.5t9 -12.5q6 -4 12 -4q12 0 18 11q16 27 23 49.5t7.5 38t-8.5 33t-17 27.5t-25 29q-6 7 -9 10q-18 20 -15 39q4 26 37 50q65 40 126 89q16 -52 40 -104q-35 -17 -49 -46q-14 -32 3 -70q2 -3 5 -10q19 -40 18 -54
q-1 -21 -36 -52q-6 -6 -6.5 -15t5.5 -16t15 -7t15 6q47 43 50 81q2 25 -22 75q-3 7 -5 10q-9 20 -3 34q11 23 46 32q1 1 2 1q58 1 116 10q139 22 193 86q41 49 28 116zM83 602q-12 83 49 152q47 52 117 52q17 0 36 -4q61 -10 124 -49q11 -7 22 0q63 39 124 49q94 17 152 -48
q61 -68 48 -149q-7 -46 -37.5 -96t-67.5 -89t-85 -78.5t-79 -62t-62 -41.5h-1q-2 -2 -4 -3q-4 -3 -8 -5q-25 16 -53 36t-77.5 60.5t-87.5 81t-70 93.5t-40 101zM922 276q-43 -51 -166 -71q-52 -8 -106 -9q-27 55 -43 109q-1 6 -6 10q108 92 157 179q20 -21 35 -49
q6 -12 19 -12v0q43 0 73 -12q48 -19 56 -64q9 -47 -19 -81z" />
    <glyph glyph-name="tupian1" unicode="&#xe695;" 
d="M853 842h-683q-48 0 -82.5 -34.5t-34.5 -82.5v-683q0 -49 34.5 -83t82.5 -34h683q49 0 83 34t34 83v683q0 48 -34 82.5t-83 34.5zM170 800h683q31 0 53 -22t22 -53v-143q-116 -4 -221 -50t-188 -128q-77 -77 -122 -175q-64 55 -149 58.5t-153 -44.5v482q0 31 22 53t53 22
zM95 42v146q60 57 143 57t142 -58q-38 -102 -38 -213q0 -3 1 -7h-173q-31 0 -53 22t-22 53v0zM853 -33h-470q1 4 1 7q0 114 43 217t123 183q76 76 173 118.5t205 46.5v-497q0 -31 -22 -53t-53 -22v0zM339 421q60 0 102.5 42.5t42.5 102.5t-42.5 102.5t-102.5 42.5
t-103 -42.5t-43 -102.5t43 -102.5t103 -42.5zM338.5 668q42.5 0 72.5 -30t30 -72t-30 -72.5t-72.5 -30.5t-72.5 30.5t-30 72.5t30 72t72.5 30z" />
    <glyph glyph-name="jiaobiao" unicode="&#xe6c7;" 
d="M-3 -108v463l547 546h462z" />
    <glyph glyph-name="tixing" unicode="&#xe6cc;" 
d="M953 177q-15 13 -46 32q-10 6 -9 18v3q1 139 -13 223q-27 156 -110 240q-66 66 -165 87q-5 32 -28 53q-28 26 -69 26t-69 -26q-24 -21 -29 -53q-98 -21 -163 -86q-35 -36 -60.5 -85.5t-36.5 -98t-17.5 -101t-5.5 -95.5t0 -80v-6q0 -13 -10 -19q-31 -19 -46 -32
q-42 -35 -42 -90q0 -22 16 -38t39 -16h296q0 -53 37.5 -90t90 -37t90 37t38.5 90h294q23 0 39.5 16.5t16.5 39.5q0 53 -38 88zM513 817q24 0 40 -15q7 -6 11 -14q-25 2 -51 2t-51 -2q15 29 51 29zM513 -52q-35 0 -60 25t-26 60h171q0 -35 -25 -60t-60 -25zM935 75h-846
q-5 0 -8.5 3.5t-3.5 8.5q0 35 26 57q13 11 42 29q30 19 30 55v7q0 35 -0.5 75.5t5.5 90t15.5 95t32 90.5t55.5 78q82 83 230 83t231 -84q74 -75 99 -217q14 -81 12 -216v-2q0 -36 30 -55q27 -18 39 -28q25 -22 25 -56q0 -6 -4.5 -10t-9.5 -4zM447 703q-35 0 -88 -47
q-57 -50 -68 -102q-2 -9 3 -16.5t14 -8.5q2 -1 4 -1q17 0 21 17q8 39 54 79q19 17 36 26.5t24 9.5q8 0 14.5 6t6.5 15t-6.5 15.5t-14.5 6.5z" />
    <glyph glyph-name="jinnang" unicode="&#xe6e5;" 
d="M948 404l-159 112l159 112q8 6 9.5 14.5t-4 15.5t-14 8.5t-15.5 -3.5l-178 -125h-52q17 12 32 25.5t32 31t27.5 35t19.5 39t8 42t-8 43.5q-11 28 -37.5 45t-59.5 17h-1q-43 0 -79 -28q-18 -13 -32 -31q-5 17 -12 32q-34 70 -101 70q-65 0 -106 -83q-7 -13 -12 -27
q-45 64 -107 65q-30 1 -57 -15t-40 -43q-26 -51 -7 -102q28 -75 140 -137q-55 -26 -102 -64q-147 -121 -147 -304v-124q0 -49 34.5 -83.5t83.5 -34.5h640q49 0 83 34.5t34 83.5v124q0 183 -147 304q-28 23 -60 42h32l179 -126q5 -4 12 -4q11 0 17 9q6 7 4.5 16t-9.5 14z
M194 669q-12 34 5 68q7 15 23 24.5t34 9.5h1q56 -1 95 -85q6 -14 21.5 -12t18.5 17q3 16 10 35t18 40.5t27.5 36t35.5 14.5q66 0 83 -125q3 -16 19.5 -18t21.5 14q15 40 41.5 62.5t58.5 22.5h1q20 0 35.5 -9t21.5 -25q23 -61 -59 -136q-39 -36 -90 -65h-268q-14 6 -31 15.5
t-44 27t-48.5 41t-30.5 47.5zM746 420q132 -108 132 -271v-124q0 -31 -22 -53t-53 -22h-640q-31 0 -53 22t-22 53v124q0 162 130 270q64 52 133 76h264q68 -23 131 -75z" />
    <glyph glyph-name="templatedefault" unicode="&#xe74a;" 
d="M474 -22h-271q-33 0 -55.5 24t-22.5 57v753l-22 -22h646q32 0 55 -24t23 -57v-306q0 -9 6.5 -15.5t15.5 -6.5t15.5 6.5t6.5 15.5v306q0 51 -35.5 88t-86.5 37h-668v-775q0 -52 35.5 -88.5t86.5 -36.5h271q9 0 15.5 6.5t6.5 15.5t-6.5 15.5t-15.5 6.5v0zM235 505h502
q9 0 15.5 6.5t6.5 15.5t-6.5 15.5t-15.5 6.5h-502q-9 0 -15.5 -6.5t-6.5 -15.5t6.5 -15.5t15.5 -6.5v0zM238 636h502q9 0 15.5 6.5t6.5 15.5t-6.5 15.5t-15.5 6.5h-502q-9 0 -15.5 -6.5t-6.5 -15.5t6.5 -15.5t15.5 -6.5v0zM739 -66q91 0 155.5 64.5t64.5 155t-64.5 155
t-155.5 64.5t-155 -64.5t-64 -155t64 -155t155 -64.5v0zM739 -22q-72 0 -123.5 51.5t-51.5 124t51.5 124t124 51.5t124 -51.5t51.5 -124t-51.5 -124t-124.5 -51.5v0zM614 138l62 -62q13 -13 31 -13t31 13l127 127q7 6 7 15.5t-6.5 16t-15.5 6.5t-16 -7l-127 -127v0l-62 62
q-6 6 -15.5 6t-15.5 -6t-6 -15.5t6 -15.5v0z" />
    <glyph glyph-name="xuanzejiaobiao" unicode="&#xe71b;" horiz-adv-x="1040" 
d="M1045 859l-982 -982h982v982zM615 -44l-174 173l65 65l109 -108l303 303l65 -65l-368 -368v0z" />
    <glyph glyph-name="shoucang" unicode="&#xe86d;" 
d="M269 -74q-29 -13 -50.5 3t-18.5 47l24 266l-175 200q-21 24 -13 49.5t39 32.5l260 59l136 229q16 27 43 27t43 -27l136 -229l260 -59q31 -7 39 -32.5t-13 -49.5l-175 -200l24 -266q3 -31 -18.5 -47t-50.5 -3l-245 105z" />
    <glyph glyph-name="guanbijiantou" unicode="&#xe86e;" 
d="M475 384l-396 396q-7 7 -7 18t7.5 18.5t18.5 7.5t18 -7l396 -396l396 396q7 7 18 7t18.5 -7.5t7.5 -18.5t-7 -18l-396 -396l396 -396q7 -7 7 -18t-7.5 -18.5t-18.5 -7.5t-18 7l-396 396l-396 -396q-8 -7 -19 -7q-10 0 -17.5 7.5t-7.5 17.5q0 11 7 19z" />
    <glyph glyph-name="shoucang1" unicode="&#xe86f;" 
d="M979 442q21 24 13 49.5t-39 32.5l-260 59l-136 229q-16 27 -43 27t-43 -27l-136 -229l-260 -59q-31 -7 -39 -32.5t13 -49.5l175 -200l-24 -266q-3 -31 18.5 -46.5t50.5 -3.5l254 109q13 6 13 21q0 9 -6.5 15.5t-15.5 6.5q-5 0 -9 -1l-254 -109q-5 -3 -5.5 -2.5t-0.5 6.5
l26 285l-188 215q-4 5 -3.5 5.5t5.5 1.5l279 64l146 246q3 5 4 5t4 -5l146 -246l279 -64q5 -1 5.5 -1.5t-3.5 -5.5l-188 -215l26 -285q0 -9 6.5 -15t15.5 -6q10 0 16.5 7t6.5 16v2l-24 266z" />
    <glyph glyph-name="sousuo" unicode="&#xe870;" 
d="M439 93q99 0 183 48.5t132.5 132.5t48.5 183t-48.5 182.5t-132.5 132.5t-183 49t-182.5 -49t-132.5 -132.5t-49 -182.5t49 -183t132.5 -132.5t182.5 -48.5zM439 44q-112 0 -207 55.5t-150 150.5t-55 207t55 207t150 150t207 55t207 -55t150.5 -150t55.5 -207t-55.5 -207
t-150.5 -150.5t-207 -55.5zM786 76q-7 7 -7 16q0 10 7.5 17.5t17.5 7.5q9 0 16 -7l172 -172q7 -7 7 -17t-7 -17t-17 -7t-17 7l-172 172v0z" />
    <glyph glyph-name="changyongxinxi" unicode="&#xe888;" 
d="M239 772h-137q-19 0 -32 -13t-13 -32v-728q0 -19 13.5 -32.5t32.5 -13.5h818h1q18 0 31.5 13.5t13.5 32.5v728q0 19 -13 32t-32 13h-137v-45h137v-728h-819l-1 728h137v45zM284 795q0 9 7 16t16.5 7t16 -7t6.5 -16v-137q0 -9 -6.5 -15.5t-16 -6.5t-16.5 6.5t-7 15.5v137z
M375 772h274v-45h-274v45zM694 795q0 9 6.5 16t16 7t16.5 -7t7 -16v-137q0 -9 -7 -15.5t-16.5 -6.5t-16 6.5t-6.5 15.5v137zM352.5 272q-49.5 0 -84 42t-34.5 101q0 58 34 94t84.5 36t84.5 -36t34 -94q0 -59 -34.5 -101t-84 -42zM353 499q-32 0 -52.5 -23t-20.5 -61
q0 -41 21.5 -69.5t51 -28.5t51.5 28.5t22 69.5q0 38 -20.5 61t-52.5 23zM551 134q4 -18 -7 -31t-29 -13h-324q-19 0 -30.5 13t-6.5 31v6.5t3.5 16.5t9.5 22.5t21 24t35 23t54 16t76 6.5t75.5 -6.5t54 -16.5t35 -22.5t21 -24.5t9.5 -22t3 -17v-6zM211 162q-12 -14 -11 -26v1
v-7l-2 -8q1 4 -1.5 8.5t-5.5 4.5h324q-3 0 -6 -3.5t-2 -6.5l-2 6l1 6v-1q0 12 -12 26q-33 41 -141 41t-142 -41v0zM603 454h250v-46h-250v46zM603 317h182v-45h-182v45z" />
    <glyph glyph-name="fujian" unicode="&#xe88c;" 
d="M517 560l155 155q50 50 119.5 50t118.5 -49.5t49 -119t-49 -118.5l-408 -408q-73 -73 -177 -73t-177 73t-73 177t73 177l272 272q7 7 7 17t-7 17t-17 7t-17 -6l-272 -272q-88 -88 -88 -212t87.5 -211.5t211.5 -87.5t211 88l408 408q64 63 64 152.5t-63.5 153t-153.5 63.5
t-153 -63l-369 -369q-39 -39 -39 -95t39 -95t95 -39t95 39l291 291q7 7 7 17t-7 17.5t-17 7.5t-17 -7l-291 -291q-26 -26 -61.5 -26t-60.5 25.5t-25 61t26 60.5z" />
    <glyph glyph-name="huidaodingbu" unicode="&#xe892;" 
d="M938 243q8 -9 20.5 -9t21 9t8.5 21t-8 21l-445 444q-8 9 -20.5 9t-20.5 -9l-445 -444q-8 -9 -8 -21t8.5 -21t20.5 -9t21 9l392 392v-693q0 -12 8.5 -20.5t20.5 -8.5t20.5 8.5t8.5 20.5v697zM41 826q0 12 8.5 20.5t20.5 8.5h884q12 0 20.5 -8.5t8.5 -20.5t-8.5 -21
t-20.5 -9h-884q-12 0 -20.5 9t-8.5 21z" />
    <glyph glyph-name="jieban" unicode="&#xe896;" 
d="M787 -26h131v0q10 0 16.5 7t6.5 16v0q0 152 -69 250l-7 -32q58 35 91.5 95.5t33.5 130.5q0 97 -60.5 170.5t-151.5 87.5q-1 1 -3 1q-10 0 -16.5 -7t-6.5 -16q0 -8 5.5 -14.5t13.5 -7.5q74 -12 123.5 -73t49.5 -141q0 -59 -27.5 -109t-74.5 -79q-11 -6 -11 -19q0 -7 4 -13
q61 -86 61 -224l22 23h-158q-9 0 -16 -6.5t-7 -16t7 -16.5t16 -7h27zM237 23h-131l22 -23q0 137 61 224q4 6 4 13q0 12 -11 19q-47 29 -74.5 79t-27.5 109q0 80 49.5 140.5t123.5 72.5q8 2 13.5 8t5.5 15t-6.5 16t-16.5 7q-2 0 -3 -1q-91 -14 -151.5 -87.5t-60.5 -170.5
q0 -71 33.5 -131.5t91.5 -95.5l-7 33q-69 -98 -69 -250q0 -9 6.5 -16t16.5 -7v0h158q9 0 16 7t7 16t-7 16t-16 7h-27v0zM518.5 839q-88.5 0 -163 -43.5t-118.5 -118.5t-44 -163t44 -163t119 -119l-7 33q-43 -58 -67 -140t-24 -173v0q0 -10 7 -16.5t16 -6.5v0h476v0
q9 0 15.5 6.5t6.5 16.5v0q0 91 -23.5 173t-66.5 140l-7 -33q74 44 118 118.5t44 163.5v0q0 88 -43.5 163t-118.5 118.5t-163.5 43.5zM659 271q-11 -6 -11 -19q0 -8 4 -14q39 -52 60.5 -127t21.5 -159l23 22h-476l23 -22q0 84 21.5 159t60.5 127q4 6 4 14q0 13 -11 19
q-64 38 -102 102t-38 141v0q0 116 82 198t198 82t198 -82t82 -198q0 -76 -37.5 -140.5t-102.5 -102.5zM512 338q59 1 106.5 34t73.5 94q2 4 2 9q0 9 -6.5 16t-16.5 7q-15 0 -21 -14q-20 -48 -56.5 -74t-82 -26t-81.5 25.5t-56 74.5q-6 14 -21 14q-10 0 -16.5 -7t-6.5 -16
q0 -5 2 -9q26 -62 73.5 -95t106.5 -33z" />
    <glyph glyph-name="mulu" unicode="&#xe898;" 
d="M51 748q-10 0 -17 -7t-7 -17t7 -17t17 -7h97q10 0 17 7t7 17t-7 17t-17 7h-97zM51 408q-10 0 -17 -7t-7 -17t7 -17t17 -7h97q10 0 17 7t7 17t-7 17t-17 7h-97zM51 68q-10 0 -17 -7t-7 -17t7 -17t17 -7h97q10 0 17 7t7 17t-7 17t-17 7h-97zM294 748q-11 0 -18 -7t-7 -17
t7 -17t18 -7h679q10 0 17 7t7 17t-7 17t-17 7h-679zM294 408q-11 0 -18 -7t-7 -17t7 -17t18 -7h679q10 0 17 7t7 17t-7 17t-17 7h-679zM294 68q-11 0 -18 -7t-7 -17t7 -17t18 -7h679q10 0 17 7t7 17t-7 17t-17 7h-679z" />
    <glyph glyph-name="shezhi" unicode="&#xe89d;" 
d="M873 590q-35 -13 -70 -5q-38 9 -65.5 43.5t-27.5 73.5q0 21 8 41q2 7 -4 9q-4 2 -23.5 11.5t-29.5 13.5q-3 1 -37 12q-36 -75 -112 -75t-112 75q-50 -14 -95 -40q27 -78 -27 -132q-54 -53 -132 -26q-26 -45 -39 -95q74 -36 74 -111q1 -77 -74 -113q13 -50 39 -96
q76 27 129 -23q57 -54 30 -135q45 -26 95 -39q36 74 112 74t112 -74q50 13 95 39q-27 78 26.5 132t132.5 26q26 46 39 96q-75 36 -74 113q0 75 74 111q-13 48 -38 93q-1 3 -6 1v0zM959 507q1 -6 1 -11q0 -11 -7 -22.5t-17 -16.5q-50 -24 -51 -72q0 -50 51 -75
q10 -4 17 -15.5t7 -22.5q0 -6 -2 -11q-15 -56 -43 -106q-5 -9 -16 -15t-21 -6q-7 0 -14 2q-53 19 -88 -16t-16 -88q2 -6 2 -14q0 -10 -6 -21t-15 -16q-50 -28 -106 -43q-5 -2 -11 -2q-11 0 -22.5 7t-15.5 17q-25 50 -74 50.5t-74 -50.5q-4 -10 -15.5 -17t-22.5 -7
q-5 0 -11 2q-55 14 -105 43q-9 5 -15.5 16t-6.5 21q0 7 2 14q19 55 -18 90q-34 32 -86 14q-6 -2 -14 -2q-10 0 -21 6t-16 15q-28 50 -43 106q-2 5 -2 11q0 11 7 22.5t17 15.5q51 25 51 74q-1 49 -51 73q-10 5 -17 16.5t-7 22.5q0 5 1 11q16 55 44 105q5 9 16 15.5t21 6.5
q8 0 14 -3q53 -18 88 17q35 34 16 87q-2 7 -2 14q0 11 6 21.5t15 15.5q50 29 106 44q5 2 11 2q11 0 22.5 -7t15.5 -17q25 -51 74 -51t74 51q5 10 16 17t22 7q7 0 14 -2l9 -3l7 -2q14 -5 23 -9q12 -5 35 -16q13 -5 20 -9q19 -8 26 -25.5t0 -36.5q-12 -33 4.5 -63.5
t50.5 -38.5q22 -5 45 3q2 1 5 2q8 2 17 1q24 -2 37 -24q27 -48 41 -102h1zM523 576q-84 0 -143.5 -59.5t-59.5 -143.5t59.5 -143t143.5 -59t143 59t59 143q0 27 -10.5 60.5t-25.5 55.5q-6 9 -17 9q-9 0 -15.5 -6.5t-6.5 -14.5q0 -7 4 -12q12 -17 20.5 -44t8.5 -48
q0 -66 -47 -113t-113.5 -47t-113 47t-46.5 113.5t46.5 113t113.5 46.5q32 0 62 -12q4 -2 8 -2q9 0 15.5 6.5t6.5 14.5q0 15 -14 20q-37 16 -78 16v0z" />
    <glyph glyph-name="tuichu" unicode="&#xe89e;" 
d="M925 -7q0 -9 -6.5 -15.5t-15.5 -6.5v0h-782q-9 0 -15.5 6.5t-6.5 15.5v782q0 9 6.5 15.5t15.5 6.5h782q9 0 15.5 -6.5t6.5 -15.5v-173h48v173q0 29 -20.5 49.5t-49.5 20.5v0h-782q-29 0 -49.5 -20.5t-20.5 -49.5v-782q0 -29 20.5 -49.5t49.5 -20.5h782v0q29 0 49.5 20.5
t20.5 49.5v173h-48v-173v0zM899 360l-150 -150q-7 -7 -7 -17t7 -17t17 -7t17 6l188 189q7 7 7 17v0q0 10 -7 17l-192 192q-7 7 -17 7t-17 -7t-7 -17t8 -17l147 -148h-430v-48h436z" />
    <glyph glyph-name="dujia" unicode="&#xe8ab;" 
d="M500 572l-302 -251q-50 69 -50 156q0 15 2 29q1 13 4 27q-1 0 -28 -14t-54.5 -27.5l-27.5 -13.5q-17 45 -17 95q0 44 13 85q23 69 77 116.5t121 61t140 -6.5q77 -25 127 -89q63 79 160 97q40 16 86.5 8t89 -30.5t77.5 -64t51 -92.5q13 -39 13 -83q0 -50 -18 -97l-110 58
q-8 35 -25 67l103 -52q2 11 2 24q0 36 -12 69q-14 46 -47 81t-78 53q-26 16 -82 16q-35 0 -69 -12q-57 -18 -96 -64q16 24 4 24q-2 0 -6 -1q122 13 210.5 -55.5t100.5 -180.5q2 -13 2 -28q0 -91 -55 -162l-86 73q35 -85 35 -177v-1q0 -163 -98 -291l-606 1v48h218
q99 40 159.5 132t59.5 208q1 99 -55 209l34 28q60 -102 68 -212h74q10 0 17 -7.5t7 -17.5v0q0 -10 -7 -17t-17 -7h-74q-6 -90 -47 -169l97 23q10 0 17 -7t7 -17v0q0 -10 -7 -17t-17 -7h-111q-13 -21 -39.5 -51t-47.5 -50l-21 -21h267q73 114 73 243q0 136 -82 257l-124 104
v0zM730 -32h243v-48h-243v48zM500 636l294 -247q18 41 18 88q0 12 -1 24q-10 90 -80 147t-160 47q-36 -3 -68 -18l1 1l-16 6q-32 12 -68 13l5 -1l-10 1q-78 0 -138 -50q-74 -60 -80 -156l-1 -14q0 -43 16 -82zM443 744q-13 1 -27 1q-9 17 -34 29.5t-56 16.5h5q-11 2 -36 2
q-54 0 -101 -24q-43 -22 -72.5 -60t-40.5 -86q-6 -7 -6 -50q0 -13 2 -26l101 53q37 73 109.5 112.5t155.5 31.5z" />
    <glyph glyph-name="licheng" unicode="&#xe8ad;" 
d="M78 227q-27 -40 -27 -84q0 -68 62 -124.5t168 -88t231 -31.5t231 31.5t168 88t62 124.5q0 44 -27 85q-8 11 -21 11q-10 0 -17 -7t-7 -17q0 -8 5 -15q19 -28 19 -57q0 -51 -55 -96t-150.5 -72.5t-207.5 -27.5t-207.5 27.5t-150.5 72.5t-55 96q0 29 19 57q5 6 5 14
q0 10 -7.5 17t-17.5 7q-13 0 -20 -10v-1zM78 470q-27 -40 -27 -84q0 -69 62 -125t168 -88t231 -32t231 32t168 88t62 125q0 44 -27 84q-8 12 -21 12q-10 0 -17 -7.5t-7 -17.5q0 -8 5 -14q19 -28 19 -57q0 -52 -55 -97t-150.5 -72t-207.5 -27t-207.5 27t-150.5 72t-55 97
q0 29 19 57q5 6 5 14q0 10 -7.5 17t-17.5 7q-13 0 -20 -11v0zM512 384q125 0 231 31.5t168 87.5t62 124t-62 124t-168 87t-231 31t-231 -31t-168 -87t-62 -124t62 -124t168 -87.5t231 -31.5zM512 433q-112 0 -207.5 27t-150.5 71.5t-55 95.5t55 95.5t150.5 71.5t207.5 27
t207.5 -27t150.5 -71.5t55 -95.5t-55 -95.5t-150.5 -71.5t-207.5 -27z" />
    <glyph glyph-name="mudedi1" unicode="&#xe8b1;" 
d="M75 -53h874v-48h-874v48zM512 -32q-191 118 -204 127q-59 42 -88 70q-57 57 -89 132t-32 159v1q0 112 55.5 207t150.5 150t207 55t207 -55t150.5 -150t55.5 -207q0 -83 -31.5 -158.5t-89.5 -133.5q-29 -28 -88 -70l-204 -127v0zM688 135q56 39 81 64q51 51 79 117t28 140
v1q0 99 -48.5 182.5t-132.5 132.5t-183 49t-183 -49t-132.5 -132.5t-48.5 -182.5q0 -73 27.5 -139.5t79.5 -118.5q25 -25 81 -64q9 -6 88 -56t87 -55q9 4 88 54t89 57zM512 263q-80 0 -137 56.5t-57 137t57 137.5t137 57t137 -57t57 -137.5t-57 -137t-137 -56.5zM512 311
q60 0 103 42.5t43 103t-43 103t-103 42.5t-103 -42.5t-43 -103t43 -103t103 -42.5z" />
    <glyph glyph-name="lubiao" unicode="&#xe8b3;" 
d="M421 316v0v250h-247q-14 0 -32 -9t-28 -21l-49 -59q-8 -10 -8 -24.5t8 -24.5l49 -59q10 -12 28 -21.5t32 -9.5h135v-45h-135q-25 0 -52 13.5t-44 33.5l-48 59q-19 22 -19 53t19 53l48 60q17 19 44 33t52 14h247v159v0q0 37 26.5 64t64.5 27t64.5 -27t26.5 -64v-46h247
q24 0 51.5 -13.5t43.5 -33.5l49 -59q19 -22 19 -53t-19 -53l-49 -59q-16 -20 -43 -33.5t-52 -13.5h-247v-433h228v-45h-638v45h228v342zM603 452h247q14 0 32 9.5t28 21.5l49 59q8 10 8 24.5t-8 23.5l-49 59q-10 13 -28 22t-32 9h-247v-68h-45v159q0 19 -13.5 32t-32.5 13
t-32.5 -13t-13.5 -32v-797h92v504h45v-26z" />
    <glyph glyph-name="shikebiao" unicode="&#xe8b6;" 
d="M733.5 -77q90.5 0 154.5 64t64 154.5t-64 154.5t-154.5 64t-154.5 -64t-64 -154.5t64 -154.5t154.5 -64zM733.5 -126q-110.5 0 -189 78.5t-78.5 189t78.5 188.5t189 78t188.5 -78t78 -188.5t-78 -189t-188.5 -78.5zM102 821h777v-364h49v388q0 10 -7.5 17t-17.5 7h-825
q-10 0 -17 -7t-7 -17v-922q0 -10 7 -17t17 -7h340v48h-316v874v0zM248 578h437v-48h-437v48zM248 433h243v-49h-243v49zM248 287h146v-49h-146v49zM758 287q0 10 -7.5 17t-17.5 7t-17 -7t-7 -17v-146q0 -13 12 -20l121 -73q6 -3 12 -3q10 0 17 7t7 17q0 13 -11 20l-109 66
v132z" />
    <glyph glyph-name="bangdan" unicode="&#xe8b9;" 
d="M633 869l316 -315v-558v-1q0 -40 -28.5 -68t-68.5 -28h-680q-40 0 -68.5 28t-28.5 69v0v776q0 41 28.5 69t68.5 28h461zM633 554h247l-247 247v-247zM900 -4v509h-267q-20 0 -34 14.5t-14 34.5v267h-413q-20 0 -34 -14.5t-14 -34.5v-776q0 -20 14 -34.5t34 -14.5h680
q20 0 34 14.5t14 34.5v0zM466 524q12 20 32 20t32 -20l62 -104l119 -27q22 -5 28 -24.5t-9 -36.5l-80 -91l11 -122q1 -1 1 -2q0 -10 -7.5 -17.5t-17.5 -7.5q-9 0 -16 6.5t-8 16.5l-13 142l81 93l-120 27l-63 106l-63 -106l-120 -27l81 -93l-11 -123l103 45q5 2 10 2
q10 0 17 -7.5t7 -17.5q0 -16 -14 -22l-122 -52q-21 -9 -37 3t-14 34l11 122l-80 91q-15 17 -9 36.5t28 24.5l119 27z" />
    <glyph glyph-name="huiyuan" unicode="&#xe8bb;" 
d="M512 657q38 0 64.5 26.5t26.5 64.5t-26.5 64.5t-64.5 26.5t-64.5 -26.5t-26.5 -64.5t26.5 -64.5t64.5 -26.5zM512 703v0q-19 0 -32.5 13t-13.5 32t13.5 32.5t32.5 13.5v0q19 0 32.5 -13.5t13.5 -32.5t-13.5 -32t-32.5 -13zM296 364q5 -3 11 -3q10 0 17 8l188 209
l188 -209q7 -8 17 -8q6 0 11 3l209 114l-80 -504h-690l-15 98h601q10 0 16.5 7t6.5 16.5t-6.5 16t-16.5 6.5h-627q-10 0 -16.5 -6.5t-6.5 -16.5v-3l22 -144q2 -8 8 -13.5t15 -5.5h728q9 0 15 5.5t8 13.5l91 569v4q0 9 -6.5 15.5t-16.5 6.5q-6 0 -11 -3l-234 -127l-193 214
q-7 7 -17 7t-17 -7l-193 -214l-234 128q-5 2 -11 2q-10 0 -16.5 -6.5t-6.5 -15.5v-4l50 -297q1 -8 7.5 -13.5t14.5 -5.5q9 0 16 7t7 16v3l-42 251l209 -114v0z" />
    <glyph glyph-name="xuanzuo" unicode="&#xe8be;" 
d="M148 575v219v0q0 30 21 51t51 22h584q30 -1 51 -22t21 -51v0v-219h49q30 0 51 -21t21 -51v-413q0 -30 -21 -51.5t-51 -21.5v0h-826q-30 0 -51 21.5t-21 51.5v413v0q0 30 21 51t51 21v0h49zM828 575v219v0q0 10 -7.5 17t-17.5 7h-583q-9 0 -16.5 -7t-7.5 -17v-219h1
q30 0 51 -21.5t21 -51.5v0v-194q0 -10 7 -17t17 -7h438q10 0 17 7t7 17v194v0q0 31 21 52t51 21h1zM75 503v-413q0 -10 7 -17t17 -7h826q10 0 17 7t7 17v413q0 9 -7 16.5t-17 7.5h-98v0q-10 0 -17 -7t-7 -18v0v-194v0q0 -30 -21 -51t-51 -22h-438q-30 1 -51 22t-21 51v0v194
q0 10 -7.5 17.5t-16.5 7.5h-98v0q-10 0 -17 -7t-7 -17v0v0zM221 17h48v-97h-48v97zM755 17h48v-97h-48v97z" />
    <glyph glyph-name="youji" unicode="&#xe8bf;" 
d="M900 821h-728q-20 0 -34 -14.5t-14 -34.5v-776q0 -20 14 -34.5t34 -14.5h728v874zM172 869h777v-946q0 -10 -7 -17t-17 -7h-753q-40 0 -68.5 28t-28.5 68v1v776q0 41 28.5 69t68.5 28zM536 -101h364v194h-728q-26 0 -48 -13v-84q0 20 14 34t34 14h728v-145h-364zM512 821
v-321l-85 51q-5 3 -12 3t-13 -3l-84 -51v321h194zM524 437q5 -4 12 -4q10 0 17.5 7t7.5 17v364h-292v-364q0 -10 7 -17t18 -7q6 0 12 4l109 65z" />
    <glyph glyph-name="menpiao" unicode="&#xe8c3;" 
d="M803 502.5q0 67.5 41 119.5t105 68v79q0 21 -14.5 35t-34.5 14h-776q-20 0 -34.5 -14.5t-14.5 -34.5v-79q64 -16 105 -68.5t41 -119t-41 -119t-104 -68.5l-1 -80q0 -20 14.5 -34t34.5 -14h776q20 0 34.5 14t14.5 34v79q-64 17 -105 69t-41 119.5zM997 357v-122
q0 -40 -28 -68.5t-69 -28.5h-776q-41 0 -69 28.5t-28 68.5v122q60 0 102.5 42.5t42.5 103t-42.5 103t-102.5 42.5v121q0 41 28 69.5t69 28.5h776q41 0 69 -28.5t28 -69.5v-121v0q-60 0 -102.5 -42.5t-42.5 -103t42.5 -103t102.5 -42.5v0zM172 17v49h680v-49h-680zM269 -80
v48h486v-48h-486zM526 397l81 -35q6 -2 6.5 -1.5t-0.5 6.5l-8 88l63 72l-93 21l-49 83l-49 -83l-94 -21l63 -72l-8 -96zM436 306q-20 -9 -35.5 2.5t-13.5 32.5l9 98l-64 73q-14 16 -8 34.5t26 22.5l96 22l50 84q11 19 30 19t30 -19l50 -84l95 -22q21 -4 27 -22.5t-8 -34.5
l-65 -73l6 -67q4 -34 -19 -51t-54 -3l-62 26z" />
    <glyph glyph-name="shanchu" unicode="&#xe8c1;" 
d="M51 724h922v-49h-922v49zM658 821v-49h48v49q0 20 -14 34t-34 14h-292v0q-20 0 -34 -14t-14 -34v0v-49h48v49h292zM172 -53v728h-48v-728q0 -20 14 -34t34 -14h680q20 0 34 14t14 34v728h-48v-728h-680zM294 578h48v-437h-48v437zM488 578h48v-437h-48v437zM682 578h48
v-437h-48v437z" />
    <glyph glyph-name="ok" unicode="&#xe8c5;" 
d="M90 467q-7 8 -18 8t-18.5 -7.5t-7.5 -18.5t8 -18l329 -330q8 -7 18.5 -7t18.5 7l549 549q7 8 7 18q0 11 -7.5 18.5t-18.5 7.5q-10 0 -18 -7l-531 -531l-311 311v0z" />
    <glyph glyph-name="dijiaqushi" unicode="&#xe8ca;" 
d="M709 -83h-2.5h-2.5h-605q-30 0 -51 21.5t-21 51.5v825q0 10 7 17t17 7t17 -7t7 -17v0v-825q0 -10 7 -17t17 -7h73v413q0 20 14.5 34t33.5 14h98q20 0 34 -14t14 -34v-413h49v291q0 20 14 34.5t34 14.5h98q20 0 34 -14.5t14 -34.5v-291h73v194q0 20 14 34t34 14h98
q20 0 34 -14t14 -34v-194h97q10 0 17 -7t7 -17.5t-7 -17.5t-17 -7h-119h-2h-3h-140v0zM828 -34v194h-17h-31h-35.5h-14.5v-194h98zM561 -34v291h-5h-10.5h-15.5h-18h-18h-15h-11.5h-4.5v-291h98zM318 -34v412h-97v-412h97v0zM807 399l-97 92l-114 -106q-7 -7 -16 -7
q-10 0 -17 7l-379 372q-7 7 -7 17t7 17t17 7t17 -7l362 -355l114 106q7 7 16.5 7t16.5 -7l115 -109l37 35q3 4 8 4q11 0 12 -11l15 -120v-2q0 -5 -3.5 -8.5t-8.5 -3.5h-2l-120 20q-10 1 -10 11q0 6 4 9z" />
    <glyph glyph-name="files" unicode="&#xe8ce;" 
d="M945 336q51 -65 51 -149v0q0 -101 -71 -172t-172 -71v0q-66 0 -121.5 32.5t-87.5 87.5l-446 2v0q-30 0 -51.5 21t-21.5 51v340q0 30 21.5 51.5t51.5 21.5h49v73v0q0 30 21 51t51 22h49v48q0 30 21 51.5t52 21.5h583q30 0 51 -21.5t21 -51.5v0v-340q0 -24 -14.5 -43
t-36.5 -26zM901 379v2h23q9 0 16.5 7t7.5 17v340v0q0 10 -7.5 17t-16.5 7h-583q-10 0 -17.5 -7t-7.5 -17v-48h486q30 0 51.5 -21.5t21.5 -51.5v0v-227q14 -8 26 -18zM826 418v206v0q0 10 -7 17t-17 7h-583q-10 0 -17 -7t-7 -17v-73h486v0q30 0 51 -21.5t21 -51.5v0v-48
q38 0 73 -12zM705 425v53v0q0 10 -7 17t-17 7h-583q-10 0 -17 -7t-7 -17v-340q0 -10 7 -17t17 -7h424q-11 34 -11 73v0q0 87 55 154t139 84zM753 -7v0q81 0 138 56.5t57 137t-57 137.5t-138 57v0q-80 0 -137 -57t-57 -137.5t57 -137t137 -56.5zM713 96q-4 4 -6 8l-68 66
q-7 7 -7 17t7 17t17 7t17 -7l57 -57l105 106q7 7 17 7t17 -7.5t7 -17.5t-7 -17l-139 -133l-17 11v0z" />
  </font>
</defs>
</svg>
